Patient4_TMGait_0pt4_03_right_40_GRF.mot
version=1
nRows=71
nColumns=19
inDegrees=no
endheader
time	F1x	F1y	F1z	M1x	M1y	M1z	F2x	F2y	F2z	M2x	M2y	M2z	EC1x	EC1y	EC1z	EC2x	EC2y	EC2z
52.39	13.852	783.929	72.3359	-282.7129	-70.8756	851.5166	-2.5938	-11.2119	4.412	-3.8966	-3.5228	-23.0178	-0.0592	0.0182	-0.0073	-0.0462	0.0165	0.9585
52.4029	11.2686	775.5566	71.7991	-279.5596	-70.881	840.0622	-1.7822	-6.6761	2.8915	-2.3224	-2.2293	-14.3946	-0.0592	0.0182	-0.0073	-0.0462	0.0165	0.9585
52.4157	9.3698	767.2558	71.067	-276.4377	-70.3944	828.406	-1.1264	-2.8549	1.5989	-0.98579	-1.1362	-7.1176	-0.0592	0.0182	-0.0073	-0.0462	0.0165	0.9585
52.4286	8.2763	759.6375	70.2007	-273.5718	-69.4479	817.3178	-0.67315	0.070369	0.617	0.042902	-0.30463	-1.5617	-0.0592	0.0182	-0.0073	-0.0462	0.0165	0.9585
52.4414	7.9423	753.0403	69.2857	-271.0868	-68.1601	807.2367	-0.38729	2.123	-0.063798	0.76755	0.27248	2.2903	-0.0592	0.0182	-0.0073	-0.0462	0.0165	0.9585
52.4543	8.2502	747.6003	68.4196	-269.0343	-66.6823	798.3459	-0.24603	3.4326	-0.48642	1.2307	0.63605	4.6973	-0.0592	0.0182	-0.0073	-0.0462	0.0165	0.9585
52.4671	9.0946	743.3329	67.6558	-267.4233	-65.1186	790.6569	-0.22632	4.1325	-0.71953	1.4797	0.85179	5.9595	-0.0592	0.0182	-0.0073	-0.0462	0.0165	0.9585
52.48	10.367	740.1886	67.024	-266.2406	-63.5423	784.1004	-0.2885	4.35	-0.82396	1.5583	0.97368	6.3645	-0.0592	0.0182	-0.0073	-0.0462	0.0165	0.9585
52.4929	11.9881	738.1454	66.529	-265.4783	-61.9891	778.616	-0.41418	4.1664	-0.85599	1.4926	1.0531	6.1315	-0.0592	0.0182	-0.0073	-0.0462	0.0165	0.9585
52.5057	13.9109	737.2106	66.1694	-265.1351	-60.4751	774.1878	-0.57484	3.5724	-0.85336	1.28	1.1185	5.3251	-0.0592	0.0182	-0.0073	-0.0462	0.0165	0.9585
52.5186	16.108	737.3558	65.9425	-265.1955	-59.0067	770.7713	-0.76807	2.5558	-0.84274	0.91069	1.1896	3.9831	-0.0592	0.0182	-0.0073	-0.0462	0.0165	0.9585
52.5314	18.5728	738.5394	65.8482	-265.6363	-57.589	768.32	-0.94357	1.0476	-0.833	0.35945	1.256	2.0323	-0.0592	0.0182	-0.0073	-0.0462	0.0165	0.9585
52.5443	21.3186	740.6902	65.872	-266.4224	-56.2038	766.7771	-1.0858	-1.0148	-0.81093	-0.39652	1.2893	-0.57789	-0.0592	0.0182	-0.0073	-0.0462	0.0165	0.9585
52.5571	24.3758	743.6609	65.9886	-267.4876	-54.8159	766.0147	-1.113	-3.634	-0.75663	-1.355	1.2321	-3.8456	-0.0592	0.0182	-0.0073	-0.0462	0.0165	0.9585
52.57	27.7431	747.1642	66.1778	-268.7088	-53.4028	765.7731	-0.93646	-6.6603	-0.63634	-2.4592	1.0094	-7.5789	-0.0592	0.0182	-0.0073	-0.0462	0.0165	0.9585
52.5829	31.4175	750.7041	66.4349	-269.8848	-51.9621	765.588	-0.45072	-9.7236	-0.40228	-3.5677	0.53105	-11.3173	-0.0592	0.0182	-0.0073	-0.0462	0.0165	0.9585
52.5957	35.3347	753.5533	66.7647	-270.7283	-50.5235	764.7979	0.49242	-12.0897	-0.0051943	-4.4057	-0.30421	-14.1691	-0.0592	0.0182	-0.0073	-0.0462	0.0165	0.9585
52.6086	39.3679	754.7352	67.1751	-270.8616	-49.1511	762.5126	2.0192	-12.5547	0.59759	-4.5289	-1.5844	-14.6741	-0.0592	0.0182	-0.0073	-0.0462	0.0165	0.9585
52.6214	43.2879	753.0721	67.6525	-269.84	-47.924	757.6775	4.2302	-9.4067	1.4339	-3.3069	-3.3714	-10.7773	-0.0592	0.0182	-0.0073	-0.0462	0.0165	0.9585
52.6343	46.8396	747.3296	68.1231	-267.2091	-46.8775	749.1842	7.1191	-0.35237	2.4923	0.092725	-5.6415	0.27991	-0.0592	0.0182	-0.0073	-0.0462	0.0165	0.9585
52.6471	49.7218	736.3461	68.448	-262.5571	-45.9958	736.002	10.5283	17.284	3.6901	6.6415	-8.2242	21.7025	-0.0592	0.0182	-0.0073	-0.0462	0.0165	0.9585
52.66	51.6249	719.0641	68.4179	-255.5273	-45.1985	717.1957	13.9733	46.2357	4.8371	17.326	-10.7045	56.7716	-0.0592	0.0182	-0.0073	-0.0462	0.0165	0.9585
52.6729	52.2694	694.4843	67.7505	-245.8065	-44.3204	691.8545	16.5995	88.6372	5.5848	32.9038	-12.3425	108.0279	-0.0592	0.0182	-0.0073	-0.0462	0.0165	0.9585
52.6857	51.4067	661.7398	66.1082	-233.1479	-43.1266	659.1704	17.0278	144.9364	5.3873	53.501	-11.9837	175.97	-0.0592	0.0182	-0.0073	-0.0462	0.0165	0.9585
52.6986	48.8841	620.2461	63.1489	-217.426	-41.3335	618.5363	13.6576	212.7197	3.4873	78.1777	-8.1742	257.6497	-0.0592	0.0182	-0.0073	-0.0462	0.0165	0.9585
52.7114	44.6964	570.1053	58.6232	-198.7684	-38.688	569.9531	6.3835	286.6986	-0.95613	104.9128	0.077327	346.6455	-0.0592	0.0182	-0.0073	-0.0462	0.0165	0.9585
52.7243	39.1125	512.5454	52.5015	-177.7006	-35.0507	514.4067	-3.1083	360.3542	-8.1826	131.2797	12.3328	434.9183	-0.0592	0.0182	-0.0073	-0.0462	0.0165	0.9585
52.7371	32.6434	450.0294	45.0939	-155.1581	-30.5161	454.0303	-12.8701	429.2206	-17.6478	155.6497	27.2048	516.8078	-0.0592	0.0182	-0.0073	-0.0462	0.0165	0.9585
52.75	25.96	385.6522	36.9936	-132.2656	-25.3896	391.5384	-21.5245	491.7784	-28.4571	177.5028	43.1071	590.3399	-0.0592	0.0182	-0.0073	-0.0462	0.0165	0.9585
52.7629	19.5877	322.2109	28.9241	-109.9964	-20.1512	329.4261	-28.2184	547.83	-39.4192	196.8445	58.3454	655.2591	-0.0592	0.0182	-0.0073	-0.0462	0.0165	0.9585
52.7757	13.7312	261.6978	21.5617	-88.9953	-15.3585	269.5519	-32.7328	597.4395	-49.5844	213.7819	71.7135	711.7674	-0.0592	0.0182	-0.0073	-0.0462	0.0165	0.9585
52.7886	8.4062	205.5814	15.3943	-69.6918	-11.4682	213.4133	-35.0785	640.6422	-58.1972	228.4066	82.3684	760.0161	-0.0592	0.0182	-0.0073	-0.0462	0.0165	0.9585
52.8014	3.6247	155.1515	10.5901	-52.449	-8.6443	162.4303	-35.4636	677.6	-65.0152	240.8158	90.123	800.3289	-0.0592	0.0182	-0.0073	-0.0462	0.0165	0.9585
52.8143	-0.47607	111.5206	7.0799	-37.5893	-6.7841	117.8726	-34.2147	708.5383	-70.0758	251.1016	95.1849	833.1343	-0.0592	0.0182	-0.0073	-0.0462	0.0165	0.9585
52.8271	-3.6584	75.4567	4.6214	-25.3427	-5.5836	80.6841	-31.7523	733.5603	-73.745	259.2916	98.1569	858.7493	-0.0592	0.0182	-0.0073	-0.0462	0.0165	0.9585
52.84	-5.6627	47.125	2.9323	-15.7537	-4.6907	51.1678	-28.6221	752.6676	-76.3981	265.3741	99.7007	877.3724	-0.0592	0.0182	-0.0073	-0.0462	0.0165	0.9585
52.8529	-6.3754	26.1134	1.7499	-8.6749	-3.8236	29.033	-25.3668	765.9711	-78.3496	269.3956	100.3949	889.2923	-0.0592	0.0182	-0.0073	-0.0462	0.0165	0.9585
52.8657	-5.9606	11.5839	0.91505	-3.8099	-2.8957	13.5273	-22.3993	773.9835	-79.6619	271.5681	100.4887	895.2371	-0.0592	0.0182	-0.0073	-0.0462	0.0165	0.9585
52.8786	-4.8844	2.4641	0.35582	-0.77655	-2.0066	3.6292	-19.8657	777.4941	-80.2887	272.2243	100.0032	896.1751	-0.0592	0.0182	-0.0073	-0.0462	0.0165	0.9585
52.8914	-3.6076	-2.4729	0.025637	0.85133	-1.2719	-1.8638	-17.7958	777.4195	-80.141	271.7441	98.8606	893.1733	-0.0592	0.0182	-0.0073	-0.0462	0.0165	0.9585
52.9043	-2.3929	-4.4779	-0.13277	1.4991	-0.73129	-4.2208	-16.114	774.6756	-79.2409	270.5009	97.0562	887.2426	-0.0592	0.0182	-0.0073	-0.0462	0.0165	0.9585
52.9171	-1.3967	-4.6233	-0.18718	1.5307	-0.36881	-4.5441	-14.7243	770.2008	-77.6918	268.8571	94.6675	879.4055	-0.0592	0.0182	-0.0073	-0.0462	0.0165	0.9585
52.93	-0.6461	-3.7503	-0.17736	1.2302	-0.15218	-3.7373	-13.53	764.904	-75.6424	267.1533	91.8239	870.6378	-0.0592	0.0182	-0.0073	-0.0462	0.0165	0.9585
52.9429	-0.14577	-2.4422	-0.14316	0.79366	-0.036707	-2.4271	-12.4524	759.7337	-73.2133	265.7317	88.6422	861.9564	-0.0592	0.0182	-0.0073	-0.0462	0.0165	0.9585
52.9557	0.15307	-1.0863	-0.095386	0.34625	0.010353	-1.0297	-11.435	755.7026	-70.5122	264.941	85.2266	854.4579	-0.0592	0.0182	-0.0073	-0.0462	0.0165	0.9585
52.9686	0.30147	0.11352	-0.053627	-0.047331	0.027742	0.23471	-10.4363	753.766	-67.6567	265.0881	81.6863	849.1792	-0.0592	0.0182	-0.0073	-0.0462	0.0165	0.9585
52.9814	0.34352	1.0719	-0.014088	-0.36016	0.02294	1.2657	-9.4563	754.6268	-64.8139	266.368	78.1833	846.9023	-0.0592	0.0182	-0.0073	-0.0462	0.0165	0.9585
52.9943	0.32477	1.7743	0.014663	-0.58988	0.012439	2.0328	-8.5264	758.5418	-62.1929	268.8037	74.9329	847.9249	-0.0592	0.0182	-0.0073	-0.0462	0.0165	0.9585
53.0071	0.26337	2.2565	0.040302	-0.74806	-0.0053512	2.5815	-7.702	765.2614	-60.0087	272.2331	72.1635	851.9896	-0.0592	0.0182	-0.0073	-0.0462	0.0165	0.9585
53.02	0.19868	2.5568	0.056535	-0.84962	-0.014306	2.9357	-7.0105	774.0638	-58.4133	276.3377	70.0276	858.3115	-0.0592	0.0182	-0.0073	-0.0462	0.0165	0.9585
53.0329	0.12065	2.735	0.073869	-0.91312	-0.027509	3.1644	-6.4541	783.9046	-57.4688	280.7035	68.5753	865.7485	-0.0592	0.0182	-0.0073	-0.0462	0.0165	0.9585
53.0457	0.055724	2.8267	0.0895	-0.95067	-0.041618	3.2932	-5.9855	793.5842	-57.1281	284.8831	67.7317	872.9794	-0.0592	0.0182	-0.0073	-0.0462	0.0165	0.9585
53.0586	-0.01469	2.8491	0.11385	-0.96534	-0.073604	3.3452	-5.4959	801.8987	-57.2545	288.4469	67.3115	878.6766	-0.0592	0.0182	-0.0073	-0.0462	0.0165	0.9585
53.0714	-0.088726	2.7975	0.1429	-0.95424	-0.12433	3.2997	-4.8367	807.7903	-57.636	291.0314	67.0414	881.6799	-0.0592	0.0182	-0.0073	-0.0462	0.0165	0.9585
53.0843	-0.18092	2.6374	0.18292	-0.90501	-0.20472	3.1131	-3.8565	810.4549	-58.0504	292.3681	66.6391	881.124	-0.0592	0.0182	-0.0073	-0.0462	0.0165	0.9585
53.0971	-0.29937	2.3117	0.22388	-0.79727	-0.30813	2.7154	-2.4338	809.4113	-58.3095	292.3015	65.8734	876.5151	-0.0592	0.0182	-0.0073	-0.0462	0.0165	0.9585
53.11	-0.43785	1.75	0.27159	-0.60345	-0.43564	2.0122	-0.5333	804.5181	-58.3081	290.7899	64.6416	867.752	-0.0592	0.0182	-0.0073	-0.0462	0.0165	0.9585
53.1229	-0.59173	0.88147	0.31511	-0.29568	-0.57035	0.92985	1.8084	796.0007	-58.0432	287.9119	62.9762	855.1467	-0.0592	0.0182	-0.0073	-0.0462	0.0165	0.9585
53.1357	-0.72749	-0.37275	0.35053	0.1524	-0.68985	-0.62886	4.5075	784.449	-57.5849	283.8711	61.001	839.4124	-0.0592	0.0182	-0.0073	-0.0462	0.0165	0.9585
53.1486	-0.80687	-2.0098	0.36313	0.73888	-0.75819	-2.654	7.4437	770.7662	-57.0542	278.98	58.8968	821.5954	-0.0592	0.0182	-0.0073	-0.0462	0.0165	0.9585
53.1614	-0.73468	-3.9456	0.33892	1.4292	-0.71921	-5.0521	10.5066	756.0833	-56.5828	273.6318	56.8485	802.9682	-0.0592	0.0182	-0.0073	-0.0462	0.0165	0.9585
53.1743	-0.40512	-5.9303	0.25638	2.1309	-0.50461	-7.521	13.5927	741.6284	-56.3004	268.2537	55.0293	784.8973	-0.0592	0.0182	-0.0073	-0.0462	0.0165	0.9585
53.1871	0.32425	-7.4719	0.094011	2.6653	-0.036048	-9.4786	16.6388	728.5262	-56.309	263.2396	53.5688	768.6013	-0.0592	0.0182	-0.0073	-0.0462	0.0165	0.9585
53.2	1.6089	-7.7995	-0.16815	2.7511	0.76493	-9.9791	19.6066	717.6259	-56.6925	258.8847	52.5626	754.9902	-0.0592	0.0182	-0.0073	-0.0462	0.0165	0.9585
53.2129	3.5773	-5.7873	-0.55085	1.981	1.9661	-7.6331	22.4863	709.2747	-57.483	255.3085	52.0421	744.4239	-0.0592	0.0182	-0.0073	-0.0462	0.0165	0.9585
53.2257	6.3099	0.058958	-1.0505	-0.17869	3.5902	-0.60513	25.2389	703.1926	-58.6496	252.4152	51.9804	736.5986	-0.0592	0.0182	-0.0073	-0.0462	0.0165	0.9585
53.2386	9.7397	11.5011	-1.6515	-4.355	5.5819	13.2946	27.8011	698.5098	-60.076	249.912	52.2733	730.5904	-0.0592	0.0182	-0.0073	-0.0462	0.0165	0.9585
53.2514	13.5753	30.3305	-2.2735	-11.1854	7.7257	36.2931	30.0653	693.9187	-61.564	247.364	52.7562	725.0328	-0.0592	0.0182	-0.0073	-0.0462	0.0165	0.9585
53.2643	17.1528	57.9625	-2.7743	-21.1656	9.5934	70.176	31.8557	687.849	-62.8432	244.2592	53.2187	718.3059	-0.0592	0.0182	-0.0073	-0.0462	0.0165	0.9585
53.2771	19.3191	94.6901	-2.908	-34.3838	10.4565	115.384	32.988	678.6994	-63.6245	240.0843	53.437	708.7599	-0.0592	0.0182	-0.0073	-0.0462	0.0165	0.9585
53.29	18.4809	138.8957	-2.3243	-50.2372	9.3117	170.0458	33.3115	665.1185	-63.6342	234.4122	53.1889	694.9887	-0.0592	0.0182	-0.0073	-0.0462	0.0165	0.9585
